<svg xmlns="http://www.w3.org/2000/svg" viewBox="0 0 1200 520" role="img" aria-label="企业培训活动" preserveAspectRatio="xMidYMid slice">
  <defs>
    <linearGradient id="bg" x1="0" y1="0" x2="1" y2="1"><stop stop-color="#55d3f0"/><stop offset=".48" stop-color="#2077e7"/><stop offset="1" stop-color="#172d9c"/></linearGradient>
    <linearGradient id="beam" x1="0" y1="1" x2="1" y2="0"><stop stop-color="#39e6dc" stop-opacity="0"/><stop offset=".5" stop-color="#82f3ff" stop-opacity=".65"/><stop offset="1" stop-color="#fff" stop-opacity="0"/></linearGradient>
    <filter id="blur"><feGaussianBlur stdDeviation="18"/></filter>
  </defs>
  <rect width="1200" height="520" fill="url(#bg)"/>
  <circle cx="1010" cy="30" r="170" fill="#7ee9ff" opacity=".22" filter="url(#blur)"/>
  <path d="M420 530 845 80h75L530 530Zm180 0L1010 120h52L670 530Zm210 0 260-290h58L910 530Z" fill="url(#beam)" opacity=".65"/>
  <g fill="none" stroke="#d6f7ff" stroke-opacity=".42" stroke-width="3">
    <path d="M40 420c190-80 370-85 540-15s355 66 580-65"/>
    <path d="M40 450c190-80 370-85 540-15s355 66 580-65"/>
    <path d="M40 480c190-80 370-85 540-15s355 66 580-65"/>
    <path d="M1000 0v520M1050 0v520M1100 0v520" stroke-dasharray="10 18"/>
  </g>
  <g transform="translate(870 155)">
    <circle cx="90" cy="45" r="25" fill="#ffd7c6"/><path d="M65 43c3-35 51-44 65-7-15-8-28-12-44-1Z" fill="#26374d"/>
    <path d="M47 160c2-65 23-95 57-95s54 30 58 95Z" fill="#ff8b68"/><path d="M83 95h40l34 64H51Z" fill="#fff" opacity=".74"/>
    <path d="m54 159-43 53M150 159l59 29" stroke="#ffd7c6" stroke-width="20" stroke-linecap="round"/>
    <path d="m69 160-33 102M140 160l42 102" stroke="#1f3560" stroke-width="24" stroke-linecap="round"/>
    <rect x="-28" y="98" width="75" height="47" rx="6" fill="#e8fbff" opacity=".9" transform="rotate(-16)"/><path d="M-10 109h40M-9 122h30" stroke="#2479dc" stroke-width="5" opacity=".65"/>
  </g>
</svg>
