<svg xmlns="http://www.w3.org/2000/svg" viewBox="0 0 900 560" role="img" aria-label="人才选拔课程">
  <defs><linearGradient id="g" x1="0" y1="0" x2="1" y2="1"><stop stop-color="#d8f7ff"/><stop offset=".5" stop-color="#5aa5f6"/><stop offset="1" stop-color="#2350c5"/></linearGradient></defs>
  <rect width="900" height="560" fill="url(#g)"/><circle cx="720" cy="120" r="160" fill="#fff" opacity=".14"/><path d="M0 470c190-90 310-65 440 12s288 55 460-72v150H0Z" fill="#112d8f" opacity=".45"/>
  <g transform="translate(520 142)"><rect width="270" height="190" rx="14" fill="#effaff" opacity=".92"/><path d="M22 35h226M22 70h150M22 105h190" stroke="#6ab5ed" stroke-width="11" stroke-linecap="round"/><circle cx="205" cy="135" r="28" fill="#ffd6c7"/><path d="M170 183c5-42 24-64 50-64s45 22 50 64Z" fill="#f57e64"/></g>
  <g transform="translate(130 120)"><circle cx="78" cy="66" r="38" fill="#f7c4ae"/><path d="M38 65c2-56 78-65 90-5-20-17-46-20-80-3Z" fill="#273854"/><path d="M20 242c3-84 27-127 67-127s65 43 70 127Z" fill="#fff"/><path d="M86 122h40l31 117H48Z" fill="#2d65d5" opacity=".85"/><path d="m47 180-75 66M150 180l79 46" stroke="#f7c4ae" stroke-width="25" stroke-linecap="round"/><path d="M30 240 5 388M142 240l42 148" stroke="#23396c" stroke-width="28" stroke-linecap="round"/><rect x="195" y="205" width="120" height="76" rx="10" fill="#fff" opacity=".9" transform="rotate(11)"/></g>
</svg>
